<svg xmlns="http://www.w3.org/2000/svg" viewBox="0 0 256 256">
  <defs>
    <linearGradient id="bg" x1="0" y1="0" x2="1" y2="1">
      <stop offset="0%" stop-color="#111827"/>
      <stop offset="100%" stop-color="#1e293b"/>
    </linearGradient>
    <linearGradient id="accent" x1="0" y1="0" x2="1" y2="1">
      <stop offset="0%" stop-color="#6366f1"/>
      <stop offset="100%" stop-color="#818cf8"/>
    </linearGradient>
  </defs>
  <!-- Background -->
  <rect width="256" height="256" rx="48" fill="url(#bg)"/>
  <!-- Book body (left page) -->
  <path d="M56 72 C56 64, 62 58, 70 58 L120 58 L120 198 L70 198 C62 198, 56 192, 56 184 Z" fill="#e2e8f0" opacity="0.95"/>
  <!-- Book body (right page) -->
  <path d="M200 72 C200 64, 194 58, 186 58 L136 58 L136 198 L186 198 C194 198, 200 192, 200 184 Z" fill="#cbd5e1" opacity="0.9"/>
  <!-- Spine -->
  <rect x="120" y="54" width="16" height="148" rx="2" fill="url(#accent)"/>
  <!-- Left page lines -->
  <rect x="72" y="82" width="36" height="4" rx="2" fill="#94a3b8" opacity="0.5"/>
  <rect x="72" y="96" width="30" height="4" rx="2" fill="#94a3b8" opacity="0.4"/>
  <rect x="72" y="110" width="34" height="4" rx="2" fill="#94a3b8" opacity="0.35"/>
  <rect x="72" y="124" width="28" height="4" rx="2" fill="#94a3b8" opacity="0.3"/>
  <rect x="72" y="138" width="32" height="4" rx="2" fill="#94a3b8" opacity="0.25"/>
  <!-- Right page lines -->
  <rect x="148" y="82" width="36" height="4" rx="2" fill="#64748b" opacity="0.5"/>
  <rect x="148" y="96" width="30" height="4" rx="2" fill="#64748b" opacity="0.4"/>
  <rect x="148" y="110" width="34" height="4" rx="2" fill="#64748b" opacity="0.35"/>
  <rect x="148" y="124" width="28" height="4" rx="2" fill="#64748b" opacity="0.3"/>
  <rect x="148" y="138" width="32" height="4" rx="2" fill="#64748b" opacity="0.25"/>
  <!-- Accent bookmark ribbon -->
  <path d="M164 54 L164 86 L172 78 L180 86 L180 54 Z" fill="url(#accent)" opacity="0.9"/>
</svg>